HIERARCHY
ROOT hip
{
  OFFSET 0 90.174 2.4664
  CHANNELS 6 Xposition Yposition Zposition Zrotation Xrotation Yrotation
  JOINT abdomen
  {
    OFFSET 0 -1.186 -1.5018
    CHANNELS 6 Xposition Yposition Zposition Zrotation Xrotation Yrotation
    JOINT abdomen2
    {
      OFFSET 0 9.964 0.2134
      CHANNELS 6 Xposition Yposition Zposition Zrotation Xrotation Yrotation
      JOINT chest
      {
        OFFSET 0 13.134 -3.2573
        CHANNELS 6 Xposition Yposition Zposition Zrotation Xrotation Yrotation
        JOINT neck
        {
          OFFSET 0 20.686 -1.6905
          CHANNELS 6 Xposition Yposition Zposition Zrotation Xrotation Yrotation
          JOINT head
          {
            OFFSET 0 7.238 -0.1237
            CHANNELS 6 Xposition Yposition Zposition Zrotation Xrotation Yrotation
            End Site
            {
              OFFSET 0 0 0
            }
          }
        }
        JOINT lCollar
        {
          OFFSET 1.7069 20.075 5.0056
          CHANNELS 6 Xposition Yposition Zposition Zrotation Xrotation Yrotation
          JOINT lShldr
          {
            OFFSET 13.6458 -0.047 -4.849
            CHANNELS 6 Xposition Yposition Zposition Zrotation Xrotation Yrotation
            JOINT lForeArm
            {
              OFFSET 28.3255 -0.9759 2.2888
              CHANNELS 6 Xposition Yposition Zposition Zrotation Xrotation Yrotation
              JOINT lHand
              {
                OFFSET 22.1583 -0.53 10.8316
                CHANNELS 6 Xposition Yposition Zposition Zrotation Xrotation Yrotation
                JOINT lThumb1
                {
                  OFFSET 0.786 0.112 2.5817
                  CHANNELS 6 Xposition Yposition Zposition Zrotation Xrotation Yrotation
                  JOINT lThumb2
                  {
                    OFFSET 0.3601 -0.878 4.2331
                    CHANNELS 6 Xposition Yposition Zposition Zrotation Xrotation Yrotation
                    JOINT lThumb2_End
                    {
                      OFFSET 1.8127 -1.216 2.2227
                      CHANNELS 6 Xposition Yposition Zposition Zrotation Xrotation Yrotation
                      End Site
                      {
                        OFFSET 0.0181 -0.0122 0.0222
                      }
                    }
                  }
                }
                JOINT lCarpal1
                {
                  OFFSET 0.9571 1.114 1.7695
                  CHANNELS 6 Xposition Yposition Zposition Zrotation Xrotation Yrotation
                  JOINT lIndex1
                  {
                    OFFSET 4.1246 0.487 4.1451
                    CHANNELS 6 Xposition Yposition Zposition Zrotation Xrotation Yrotation
                    JOINT lIndex2
                    {
                      OFFSET 3.4052 -1.454 2.7682
                      CHANNELS 6 Xposition Yposition Zposition Zrotation Xrotation Yrotation
                      JOINT lIndex2_End
                      {
                        OFFSET 1.4531 -1.795 1.2713
                        CHANNELS 6 Xposition Yposition Zposition Zrotation Xrotation Yrotation
                        End Site
                        {
                          OFFSET 0.0145 -0.0179 0.0127
                        }
                      }
                    }
                  }
                  JOINT lMid1
                  {
                    OFFSET 5.6954 0.21 2.1184
                    CHANNELS 6 Xposition Yposition Zposition Zrotation Xrotation Yrotation
                    JOINT lMid2
                    {
                      OFFSET 3.9766 -1.54 2.3863
                      CHANNELS 6 Xposition Yposition Zposition Zrotation Xrotation Yrotation
                      JOINT lMid2_End
                      {
                        OFFSET 1.4042 -1.926 1.125
                        CHANNELS 6 Xposition Yposition Zposition Zrotation Xrotation Yrotation
                        End Site
                        {
                          OFFSET 0.014 -0.0193 0.0113
                        }
                      }
                    }
                  }
                }
                JOINT lCarpal2
                {
                  OFFSET 2.0956 0.66 -0.3894
                  CHANNELS 6 Xposition Yposition Zposition Zrotation Xrotation Yrotation
                  JOINT lRing1
                  {
                    OFFSET 5.0395 -0.09 2.4971
                    CHANNELS 6 Xposition Yposition Zposition Zrotation Xrotation Yrotation
                    JOINT lRing2
                    {
                      OFFSET 3.7921 -1.552 1.4806
                      CHANNELS 6 Xposition Yposition Zposition Zrotation Xrotation Yrotation
                      JOINT lRing2_End
                      {
                        OFFSET 1.4655 -1.808 0.9609
                        CHANNELS 6 Xposition Yposition Zposition Zrotation Xrotation Yrotation
                        End Site
                        {
                          OFFSET 0.0147 -0.0181 0.0096
                        }
                      }
                    }
                  }
                  JOINT lPinky1
                  {
                    OFFSET 4.9141 -1.269 0.3591
                    CHANNELS 6 Xposition Yposition Zposition Zrotation Xrotation Yrotation
                    JOINT lPinky2
                    {
                      OFFSET 3.1477 -1.685 0.8462
                      CHANNELS 6 Xposition Yposition Zposition Zrotation Xrotation Yrotation
                      JOINT lPinky2_End
                      {
                        OFFSET 0.8055 -1.585 0.7955
                        CHANNELS 6 Xposition Yposition Zposition Zrotation Xrotation Yrotation
                        End Site
                        {
                          OFFSET 0.0081 -0.0158 0.008
                        }
                      }
                    }
                  }
                }
              }
            }
          }
        }
        JOINT rCollar
        {
          OFFSET -1.7069 20.075 5.0056
          CHANNELS 6 Xposition Yposition Zposition Zrotation Xrotation Yrotation
          JOINT rShldr
          {
            OFFSET -13.6458 -0.047 -4.849
            CHANNELS 6 Xposition Yposition Zposition Zrotation Xrotation Yrotation
            JOINT rForeArm
            {
              OFFSET -28.3255 -0.9759 2.2888
              CHANNELS 6 Xposition Yposition Zposition Zrotation Xrotation Yrotation
              JOINT rHand
              {
                OFFSET -22.1583 -0.53 10.8316
                CHANNELS 6 Xposition Yposition Zposition Zrotation Xrotation Yrotation
                JOINT rThumb1
                {
                  OFFSET -0.786 0.112 2.5817
                  CHANNELS 6 Xposition Yposition Zposition Zrotation Xrotation Yrotation
                  JOINT rThumb2
                  {
                    OFFSET -0.3601 -0.878 4.2331
                    CHANNELS 6 Xposition Yposition Zposition Zrotation Xrotation Yrotation
                    JOINT rThumb2_End
                    {
                      OFFSET -1.8127 -1.216 2.2227
                      CHANNELS 6 Xposition Yposition Zposition Zrotation Xrotation Yrotation
                      End Site
                      {
                        OFFSET -0.0181 -0.0122 0.0222
                      }
                    }
                  }
                }
                JOINT rCarpal1
                {
                  OFFSET -0.9571 1.114 1.7695
                  CHANNELS 6 Xposition Yposition Zposition Zrotation Xrotation Yrotation
                  JOINT rIndex1
                  {
                    OFFSET -4.1246 0.487 4.1451
                    CHANNELS 6 Xposition Yposition Zposition Zrotation Xrotation Yrotation
                    JOINT rIndex2
                    {
                      OFFSET -3.4052 -1.454 2.7682
                      CHANNELS 6 Xposition Yposition Zposition Zrotation Xrotation Yrotation
                      JOINT rIndex2_End
                      {
                        OFFSET -1.4531 -1.795 1.2713
                        CHANNELS 6 Xposition Yposition Zposition Zrotation Xrotation Yrotation
                        End Site
                        {
                          OFFSET -0.0145 -0.018 0.0127
                        }
                      }
                    }
                  }
                  JOINT rMid1
                  {
                    OFFSET -5.6954 0.21 2.1184
                    CHANNELS 6 Xposition Yposition Zposition Zrotation Xrotation Yrotation
                    JOINT rMid2
                    {
                      OFFSET -3.9766 -1.54 2.3863
                      CHANNELS 6 Xposition Yposition Zposition Zrotation Xrotation Yrotation
                      JOINT rMid2_End
                      {
                        OFFSET -1.4042 -1.926 1.125
                        CHANNELS 6 Xposition Yposition Zposition Zrotation Xrotation Yrotation
                        End Site
                        {
                          OFFSET -0.014 -0.0193 0.0113
                        }
                      }
                    }
                  }
                }
                JOINT rCarpal2
                {
                  OFFSET -2.0956 0.66 -0.3894
                  CHANNELS 6 Xposition Yposition Zposition Zrotation Xrotation Yrotation
                  JOINT rRing1
                  {
                    OFFSET -5.0395 -0.09 2.4971
                    CHANNELS 6 Xposition Yposition Zposition Zrotation Xrotation Yrotation
                    JOINT rRing2
                    {
                      OFFSET -3.7921 -1.552 1.4806
                      CHANNELS 6 Xposition Yposition Zposition Zrotation Xrotation Yrotation
                      JOINT rRing2_End
                      {
                        OFFSET -1.4655 -1.808 0.9609
                        CHANNELS 6 Xposition Yposition Zposition Zrotation Xrotation Yrotation
                        End Site
                        {
                          OFFSET -0.0147 -0.0181 0.0096
                        }
                      }
                    }
                  }
                  JOINT rPinky1
                  {
                    OFFSET -4.9141 -1.269 0.3592
                    CHANNELS 6 Xposition Yposition Zposition Zrotation Xrotation Yrotation
                    JOINT rPinky2
                    {
                      OFFSET -3.1477 -1.685 0.8462
                      CHANNELS 6 Xposition Yposition Zposition Zrotation Xrotation Yrotation
                      JOINT rPinky2_End
                      {
                        OFFSET -0.8055 -1.585 0.7955
                        CHANNELS 6 Xposition Yposition Zposition Zrotation Xrotation Yrotation
                        End Site
                        {
                          OFFSET -0.0081 -0.0158 0.008
                        }
                      }
                    }
                  }
                }
              }
            }
          }
        }
      }
    }
  }
  JOINT lThigh
  {
    OFFSET 8.367 -8.2066 0.5982
    CHANNELS 6 Xposition Yposition Zposition Zrotation Xrotation Yrotation
    JOINT lShin
    {
      OFFSET 2.1923 -43.463 -0.4932
      CHANNELS 6 Xposition Yposition Zposition Zrotation Xrotation Yrotation
      JOINT lFoot
      {
        OFFSET 0.7333 -45.8593 -2.6451
        CHANNELS 6 Xposition Yposition Zposition Zrotation Xrotation Yrotation
        End Site
        {
          OFFSET 2.6618 -4.2699 12.3931
        }
      }
    }
  }
  JOINT rThigh
  {
    OFFSET -8.367 -8.2066 0.5982
    CHANNELS 6 Xposition Yposition Zposition Zrotation Xrotation Yrotation
    JOINT rShin
    {
      OFFSET -2.1923 -43.463 -0.4931
      CHANNELS 6 Xposition Yposition Zposition Zrotation Xrotation Yrotation
      JOINT rFoot
      {
        OFFSET -0.7333 -45.8593 -2.6451
        CHANNELS 6 Xposition Yposition Zposition Zrotation Xrotation Yrotation
        End Site
        {
          OFFSET -2.6618 -4.2699 12.3931
        }
      }
    }
  }
}
MOTION
Frames:	4
Frame Time:	0.0333333
0 90.174 2.4664 0 0 -0 0 -1.186 -1.5018 0 0 -0 0 9.964 0.2134 0 0 -0 0 13.134 -3.2573 0 0 -0 0 20.686 -1.6905 0 0 -0 0 7.238 -0.1237 0 0 -0 1.7069 20.075 5.0056 0 0 -0 13.6458 -0.047 -4.849 1.66051 0.0835086 5.75766 28.3255 -0.9759 2.2888 -0.0175111 0.895433 15.7816 22.1583 -0.53 10.8316 7.95139e-016 -1.98785e-016 -0 0.786 0.112 2.5817 5.46658e-016 -3.97569e-016 -0 0.3601 -0.878 4.2331 5.96354e-016 0 -0 1.8127 -1.216 2.2227 3.97569e-016 1.98785e-016 9.54166e-015 0.9571 1.114 1.7695 1.49089e-016 -3.97569e-016 -0 4.1246 0.487 4.1451 6.4605e-016 0 3.18055e-015 3.4052 -1.454 2.7682 5.96354e-016 0 3.18055e-015 1.4531 -1.795 1.2713 8.94531e-016 -1.98785e-016 6.36111e-015 5.6954 0.21 2.1184 6.4605e-016 0 3.18055e-015 3.9766 -1.54 2.3863 5.96354e-016 0 3.18055e-015 1.4042 -1.926 1.125 8.94531e-016 -1.98785e-016 6.36111e-015 2.0956 0.66 -0.3894 1.49089e-016 -3.97569e-016 -0 5.0395 -0.09 2.4971 6.4605e-016 0 3.18055e-015 3.7921 -1.552 1.4806 5.96354e-016 0 3.18055e-015 1.4655 -1.808 0.9609 8.94531e-016 -1.98785e-016 6.36111e-015 4.9141 -1.269 0.3591 6.4605e-016 0 3.18055e-015 3.1477 -1.685 0.8462 5.96354e-016 0 3.18055e-015 0.8055 -1.585 0.7955 8.94531e-016 -1.98785e-016 6.36111e-015 -1.7069 20.075 5.0056 0 0 -0 -13.6458 -0.047 -4.849 -1.4496 0.0636048 -5.0245 -28.3255 -0.9759 2.2888 -1.74811 1.20616 -16.8394 -22.1583 -0.53 10.8316 -1.19271e-015 1.98785e-016 -3.18055e-015 -0.786 0.112 2.5817 -3.97569e-016 1.98785e-016 -3.18055e-015 -0.3601 -0.878 4.2331 -2.98177e-016 1.98785e-016 -3.18055e-015 -1.8127 -1.216 2.2227 -2.98177e-016 3.97569e-016 -0 -0.9571 1.114 1.7695 4.96962e-016 0 -6.36111e-015 -4.1246 0.487 4.1451 -9.93923e-017 3.97569e-016 -0 -3.4052 -1.454 2.7682 -8.94531e-016 5.96354e-016 -0 -1.4531 -1.795 1.2713 -3.97569e-016 3.97569e-016 -0 -5.6954 0.21 2.1184 -9.93923e-017 3.97569e-016 -0 -3.9766 -1.54 2.3863 -8.94531e-016 5.96354e-016 -0 -1.4042 -1.926 1.125 -3.97569e-016 3.97569e-016 -0 -2.0956 0.66 -0.3894 4.96962e-016 0 -6.36111e-015 -5.0395 -0.09 2.4971 -9.93923e-017 3.97569e-016 -0 -3.7921 -1.552 1.4806 -8.94531e-016 5.96354e-016 -0 -1.4655 -1.808 0.9609 -3.97569e-016 3.97569e-016 -0 -4.9141 -1.269 0.3592 -9.93923e-017 3.97569e-016 -0 -3.1477 -1.685 0.8462 -8.94531e-016 5.96354e-016 -0 -0.8055 -1.585 0.7955 -3.97569e-016 3.97569e-016 -0 8.367 -8.2066 0.5982 -4.66115 -1.03232 0.120763 2.1923 -43.463 -0.4932 0.00990601 1.55097 0.177175 0.7333 -45.8593 -2.6451 4.65196 -0.54114 -0.255042 -8.367 -8.2066 0.5982 4.66115 -1.03222 -0.120763 -2.1923 -43.463 -0.4931 -0.00990459 1.5509 -0.177176 -0.7333 -45.8593 -2.6451 -4.65196 -0.541171 0.255041 
-3.08265 1.73016 -10.2071 -72.0441 -89.9972 -161.043 -2.22045e-016 -1.186 -1.5018 0.133215 -0.152343 -0.279406 2.22045e-016 9.964 0.2134 0.265713 -0.305306 -0.558611 0 13.134 -3.2573 0.265714 -0.305309 -0.558595 2.22045e-016 20.686 -1.6905 3.82836 -0.785967 -0.0106507 -8.88178e-016 7.238 -0.1237 19.1606 -1.65067 -0.145239 1.7069 20.075 5.0056 -30.2898 -8.99802 -1.75535 13.6458 -0.047 -4.849 -40.1405 30.0552 12.8862 28.3255 -0.9759 2.2888 -17.9782 -1.22082 -51.4355 22.1583 -0.53 10.8316 -20.7914 -12.6639 -20.6113 0.786 0.112 2.5817 -3.18055e-015 0 -3.18055e-015 0.3601 -0.878 4.2331 0 0 -0 1.8127 -1.216 2.2227 -1.59028e-015 -3.18055e-015 -0 0.9571 1.114 1.7695 -3.18055e-015 0 -3.18055e-015 4.1246 0.487 4.1451 3.18055e-015 -6.36111e-015 9.54166e-015 3.4052 -1.454 2.7682 -3.18055e-015 3.18055e-015 -0 1.4531 -1.795 1.2713 4.77083e-015 -3.18055e-015 -0 5.6954 0.21 2.1184 3.18055e-015 -6.36111e-015 9.54166e-015 3.9766 -1.54 2.3863 -3.18055e-015 3.18055e-015 -0 1.4042 -1.926 1.125 4.77083e-015 -3.18055e-015 -0 2.0956 0.66 -0.3894 -3.18055e-015 0 -3.18055e-015 5.0395 -0.09 2.4971 3.18055e-015 -6.36111e-015 9.54166e-015 3.7921 -1.552 1.4806 -3.18055e-015 3.18055e-015 -0 1.4655 -1.808 0.9609 4.77083e-015 -3.18055e-015 -0 4.9141 -1.269 0.3591 3.18055e-015 -6.36111e-015 9.54166e-015 3.1477 -1.685 0.8462 -3.18055e-015 3.18055e-015 -0 0.8055 -1.585 0.7955 4.77083e-015 -3.18055e-015 -0 -1.7069 20.075 5.0056 -25.7003 2.80446 -14.7287 -13.6458 -0.047 -4.849 84.1269 -2.18369 111.438 -28.3255 -0.9759 2.2888 -11.2142 -14.0243 28.9574 -22.1583 -0.53 10.8316 -15.8357 -20.2374 4.3189 -0.786 0.112 2.5817 -2.35017e-007 -3.50573e-007 -6.36764e-008 -0.3601 -0.878 4.2331 -2.35017e-007 -3.50572e-007 -6.36764e-008 -1.8127 -1.216 2.2227 4.41391e-032 7.95139e-016 -3.18055e-015 -0.9571 1.114 1.7695 -1.59028e-015 1.59028e-015 -0 -4.1246 0.487 4.1451 -2.35017e-007 -3.50573e-007 -6.36763e-008 -3.4052 -1.454 2.7682 -2.35017e-007 -3.50572e-007 -6.36764e-008 -1.4531 -1.795 1.2713 3.18055e-015 0 3.18055e-015 -5.6954 0.21 2.1184 -2.35017e-007 -3.50573e-007 -6.36763e-008 -3.9766 -1.54 2.3863 -2.35017e-007 -3.50572e-007 -6.36764e-008 -1.4042 -1.926 1.125 3.18055e-015 0 3.18055e-015 -2.0956 0.66 -0.3894 -1.59028e-015 1.59028e-015 -0 -5.0395 -0.09 2.4971 -2.35017e-007 -3.50573e-007 -6.36763e-008 -3.7921 -1.552 1.4806 -2.35017e-007 -3.50572e-007 -6.36764e-008 -1.4655 -1.808 0.9609 3.18055e-015 0 3.18055e-015 -4.9141 -1.269 0.3592 -2.35017e-007 -3.50573e-007 -6.36763e-008 -3.1477 -1.685 0.8462 -2.35017e-007 -3.50572e-007 -6.36764e-008 -0.8055 -1.585 0.7955 3.18055e-015 0 3.18055e-015 8.367 -8.2066 0.5982 -19.468 -32.3268 -8.04739 2.1923 -43.463 -0.4932 32.1795 48.0412 -14.5843 0.7333 -45.8593 -2.6451 -3.27158 6.19391 -17.7514 -8.367 -8.2066 0.5982 -0.862688 -7.39935 -2.01454 -2.1923 -43.463 -0.4931 8.08715 55.2375 -9.10498 -0.7333 -45.8593 -2.6451 -2.61558 23.0983 9.6212 
-3.08265 1.73016 -10.2071 -72.0441 -89.9972 -161.043 -2.22045e-016 -1.186 -1.5018 0.133215 -0.152343 -0.279406 2.22045e-016 9.964 0.2134 0.265713 -0.305306 -0.558611 0 13.134 -3.2573 0.265714 -0.305309 -0.558595 2.22045e-016 20.686 -1.6905 3.65615 -0.781105 -0.0117192 -8.88178e-016 7.238 -0.1237 18.9166 -1.68313 -0.247555 1.7069 20.075 5.0056 -30.2898 -8.99802 -1.75535 13.6458 -0.047 -4.849 -39.7492 29.5154 12.165 28.3255 -0.9759 2.2888 -17.7162 -1.19875 -52.3007 22.1583 -0.53 10.8316 -20.8401 -12.6383 -20.11 0.786 0.112 2.5817 1.56952e-006 -5.12683e-007 -1.64084e-007 0.3601 -0.878 4.2331 -1.27222e-014 6.36111e-015 -0 1.8127 -1.216 2.2227 1.47139e-006 -5.50521e-007 -1.20151e-006 0.9571 1.114 1.7695 -4.77083e-015 0 -0 4.1246 0.487 4.1451 1.56952e-006 -5.12683e-007 -1.64084e-007 3.4052 -1.454 2.7682 -7.95139e-015 6.36111e-015 -0 1.4531 -1.795 1.2713 1.47139e-006 -5.50521e-007 -1.20151e-006 5.6954 0.21 2.1184 1.56952e-006 -5.12683e-007 -1.64084e-007 3.9766 -1.54 2.3863 -7.95139e-015 6.36111e-015 -0 1.4042 -1.926 1.125 1.47139e-006 -5.50521e-007 -1.20151e-006 2.0956 0.66 -0.3894 -4.77083e-015 0 -0 5.0395 -0.09 2.4971 1.56952e-006 -5.12683e-007 -1.64084e-007 3.7921 -1.552 1.4806 -7.95139e-015 6.36111e-015 -0 1.4655 -1.808 0.9609 1.47139e-006 -5.50521e-007 -1.20151e-006 4.9141 -1.269 0.3591 1.56952e-006 -5.12683e-007 -1.64084e-007 3.1477 -1.685 0.8462 -7.95139e-015 6.36111e-015 -0 0.8055 -1.585 0.7955 1.47139e-006 -5.50521e-007 -1.20151e-006 -1.7069 20.075 5.0056 -25.7003 2.80446 -14.7287 -13.6458 -0.047 -4.849 84.1269 -2.1837 111.438 -28.3255 -0.9759 2.2888 -11.2142 -14.0243 28.9574 -22.1583 -0.53 10.8316 -15.8357 -20.2374 4.3189 -0.786 0.112 2.5817 -1.40229e-006 9.40068e-007 2.63955e-008 -0.3601 -0.878 4.2331 -1.17508e-007 -1.75286e-007 -3.18382e-008 -1.8127 -1.216 2.2227 -1.16727e-006 1.29064e-006 9.0072e-008 -0.9571 1.114 1.7695 -1.59028e-015 3.18055e-015 -0 -4.1246 0.487 4.1451 -1.40229e-006 9.40068e-007 2.63955e-008 -3.4052 -1.454 2.7682 -1.17508e-007 -1.75286e-007 -3.18382e-008 -1.4531 -1.795 1.2713 -1.16727e-006 1.29064e-006 9.0072e-008 -5.6954 0.21 2.1184 -1.40229e-006 9.40068e-007 2.63955e-008 -3.9766 -1.54 2.3863 -1.17508e-007 -1.75286e-007 -3.18382e-008 -1.4042 -1.926 1.125 -1.16727e-006 1.29064e-006 9.0072e-008 -2.0956 0.66 -0.3894 -1.59028e-015 3.18055e-015 -0 -5.0395 -0.09 2.4971 -1.40229e-006 9.40068e-007 2.63955e-008 -3.7921 -1.552 1.4806 -1.17508e-007 -1.75286e-007 -3.18382e-008 -1.4655 -1.808 0.9609 -1.16727e-006 1.29064e-006 9.0072e-008 -4.9141 -1.269 0.3592 -1.40229e-006 9.40068e-007 2.63955e-008 -3.1477 -1.685 0.8462 -1.17508e-007 -1.75286e-007 -3.18382e-008 -0.8055 -1.585 0.7955 -1.16727e-006 1.29064e-006 9.0072e-008 8.367 -8.2066 0.5982 -19.468 -32.3268 -8.04739 2.1923 -43.463 -0.4932 32.1795 48.0412 -14.5843 0.7333 -45.8593 -2.6451 -3.27158 6.1939 -17.7514 -8.367 -8.2066 0.5982 -0.862688 -7.39935 -2.01454 -2.1923 -43.463 -0.4931 8.08714 55.2375 -9.10498 -0.7333 -45.8593 -2.6451 -2.61559 23.0983 9.62121 
-3.08265 1.73016 -10.2071 -72.0441 -89.9972 -161.043 -2.22045e-016 -1.186 -1.5018 0.133215 -0.152343 -0.279406 2.22045e-016 9.964 0.2134 0.265713 -0.305306 -0.558611 0 13.134 -3.2573 0.265714 -0.305309 -0.558595 2.22045e-016 20.686 -1.6905 3.48375 -0.776401 -0.0127939 0 7.238 -0.1237 18.6724 -1.71516 -0.35012 1.7069 20.075 5.0056 -30.2898 -8.99802 -1.75535 13.6458 -0.047 -4.849 -39.3667 28.9698 11.4497 28.3255 -0.9759 2.2888 -17.4531 -1.18058 -53.169 22.1583 -0.53 10.8316 -20.8891 -12.6131 -19.6082 0.786 0.112 2.5817 -1.11319e-014 -6.36111e-015 6.36111e-015 0.3601 -0.878 4.2331 -1.60525e-007 -6.55345e-007 7.08469e-007 1.8127 -1.216 2.2227 -1.54698e-007 1.46614e-006 -3.85818e-006 0.9571 1.114 1.7695 -9.54166e-015 0 -6.36111e-015 4.1246 0.487 4.1451 -1.59028e-015 0 6.36111e-015 3.4052 -1.454 2.7682 -1.60525e-007 -6.55345e-007 7.08469e-007 1.4531 -1.795 1.2713 -1.54698e-007 1.46614e-006 -3.85818e-006 5.6954 0.21 2.1184 -1.59028e-015 0 6.36111e-015 3.9766 -1.54 2.3863 -1.60525e-007 -6.55345e-007 7.08469e-007 1.4042 -1.926 1.125 -1.54698e-007 1.46614e-006 -3.85818e-006 2.0956 0.66 -0.3894 -9.54166e-015 0 -6.36111e-015 5.0395 -0.09 2.4971 -1.59028e-015 0 6.36111e-015 3.7921 -1.552 1.4806 -1.60525e-007 -6.55345e-007 7.08469e-007 1.4655 -1.808 0.9609 -1.54698e-007 1.46614e-006 -3.85818e-006 4.9141 -1.269 0.3591 -1.59028e-015 0 6.36111e-015 3.1477 -1.685 0.8462 -1.60525e-007 -6.55345e-007 7.08469e-007 0.8055 -1.585 0.7955 -1.54698e-007 1.46614e-006 -3.85818e-006 -1.7069 20.075 5.0056 -25.7003 2.80445 -14.7287 -13.6458 -0.047 -4.849 84.1269 -2.1837 111.438 -28.3255 -0.9759 2.2888 -11.2142 -14.0243 28.9574 -22.1583 -0.53 10.8316 -15.8357 -20.2374 4.31888 -0.786 0.112 2.5817 -2.35017e-007 -3.50572e-007 -6.36764e-008 -0.3601 -0.878 4.2331 -1.59028e-015 0 -6.36111e-015 -1.8127 -1.216 2.2227 -2.35017e-007 -3.50572e-007 -6.36764e-008 -0.9571 1.114 1.7695 -1.59028e-015 -3.18055e-015 6.36111e-015 -4.1246 0.487 4.1451 -2.35017e-007 -3.50572e-007 -6.36764e-008 -3.4052 -1.454 2.7682 -1.59028e-015 3.18055e-015 -6.36111e-015 -1.4531 -1.795 1.2713 -2.35017e-007 -3.50572e-007 -6.36764e-008 -5.6954 0.21 2.1184 -2.35017e-007 -3.50572e-007 -6.36764e-008 -3.9766 -1.54 2.3863 -1.59028e-015 3.18055e-015 -6.36111e-015 -1.4042 -1.926 1.125 -2.35017e-007 -3.50572e-007 -6.36764e-008 -2.0956 0.66 -0.3894 -1.59028e-015 -3.18055e-015 6.36111e-015 -5.0395 -0.09 2.4971 -2.35017e-007 -3.50572e-007 -6.36764e-008 -3.7921 -1.552 1.4806 -1.59028e-015 3.18055e-015 -6.36111e-015 -1.4655 -1.808 0.9609 -2.35017e-007 -3.50572e-007 -6.36764e-008 -4.9141 -1.269 0.3592 -2.35017e-007 -3.50572e-007 -6.36764e-008 -3.1477 -1.685 0.8462 -1.59028e-015 3.18055e-015 -6.36111e-015 -0.8055 -1.585 0.7955 -2.35017e-007 -3.50572e-007 -6.36764e-008 8.367 -8.2066 0.5982 -19.468 -32.3268 -8.04739 2.1923 -43.463 -0.4932 32.1795 48.0412 -14.5843 0.7333 -45.8593 -2.6451 -3.27161 6.19391 -17.7514 -8.367 -8.2066 0.5982 -0.862688 -7.39935 -2.01454 -2.1923 -43.463 -0.4931 8.08715 55.2375 -9.10498 -0.7333 -45.8593 -2.6451 -2.61558 23.0983 9.6212 
